<?xml version="1.0" encoding="UTF-8"?>
<svg xmlns="http://www.w3.org/2000/svg" viewBox="0 0 1200 800" width="1200" height="800">
  <!-- Title -->
  <text x="600" y="30" font-size="24" font-weight="bold" text-anchor="middle" fill="#1e88e5">
    Maritime Robotics Ecosystem with ROS 2
  </text>

  <!-- Vehicle Platforms Section -->
  <g id="vehicles">
    <rect x="50" y="60" width="200" height="300" rx="10" fill="#1e88e5" opacity="0.1" stroke="#1e88e5" stroke-width="2"/>
    <text x="150" y="85" font-size="16" font-weight="bold" text-anchor="middle" fill="#1e88e5">🚢 Vehicle Platforms</text>

    <rect x="70" y="100" width="160" height="50" rx="5" fill="#1e88e5" stroke="#0d47a1" stroke-width="2"/>
    <text x="150" y="125" font-size="13" font-weight="bold" text-anchor="middle" fill="white">ASV/USV</text>
    <text x="150" y="140" font-size="11" text-anchor="middle" fill="white">Surface Vehicles</text>

    <rect x="70" y="160" width="160" height="50" rx="5" fill="#1e88e5" stroke="#0d47a1" stroke-width="2"/>
    <text x="150" y="185" font-size="13" font-weight="bold" text-anchor="middle" fill="white">AUV</text>
    <text x="150" y="200" font-size="11" text-anchor="middle" fill="white">Autonomous Underwater</text>

    <rect x="70" y="220" width="160" height="50" rx="5" fill="#1e88e5" stroke="#0d47a1" stroke-width="2"/>
    <text x="150" y="245" font-size="13" font-weight="bold" text-anchor="middle" fill="white">ROV</text>
    <text x="150" y="260" font-size="11" text-anchor="middle" fill="white">Remotely Operated</text>

    <rect x="70" y="280" width="160" height="50" rx="5" fill="#1e88e5" stroke="#0d47a1" stroke-width="2"/>
    <text x="150" y="305" font-size="13" font-weight="bold" text-anchor="middle" fill="white">Gliders</text>
    <text x="150" y="320" font-size="11" text-anchor="middle" fill="white">Buoyancy-Driven</text>
  </g>

  <!-- ROS 2 Core Section -->
  <g id="ros-core">
    <rect x="300" y="60" width="300" height="300" rx="10" fill="#43a047" opacity="0.1" stroke="#43a047" stroke-width="2"/>
    <text x="450" y="85" font-size="16" font-weight="bold" text-anchor="middle" fill="#43a047">ROS 2 Ecosystem</text>

    <!-- ROS 2 Core -->
    <rect x="320" y="100" width="260" height="70" rx="5" fill="#43a047" stroke="#2e7d32" stroke-width="2"/>
    <text x="450" y="125" font-size="14" font-weight="bold" text-anchor="middle" fill="white">ROS 2 Core</text>
    <text x="450" y="143" font-size="10" text-anchor="middle" fill="white">Topics • Services • TF</text>
    <text x="450" y="158" font-size="10" text-anchor="middle" fill="white">Launch • Parameters</text>

    <!-- Autonomy Stacks -->
    <text x="450" y="190" font-size="12" font-weight="bold" text-anchor="middle" fill="#2e7d32">Autonomy Stacks</text>
    <rect x="320" y="195" width="60" height="35" rx="3" fill="#66bb6a" stroke="#2e7d32" stroke-width="1.5"/>
    <text x="350" y="215" font-size="10" text-anchor="middle" fill="white">Blue</text>

    <rect x="390" y="195" width="60" height="35" rx="3" fill="#66bb6a" stroke="#2e7d32" stroke-width="1.5"/>
    <text x="420" y="215" font-size="10" text-anchor="middle" fill="white">MVP</text>

    <rect x="460" y="195" width="60" height="35" rx="3" fill="#66bb6a" stroke="#2e7d32" stroke-width="1.5"/>
    <text x="490" y="212" font-size="10" text-anchor="middle" fill="white">Project11</text>

    <rect x="530" y="195" width="50" height="35" rx="3" fill="#66bb6a" stroke="#2e7d32" stroke-width="1.5"/>
    <text x="555" y="215" font-size="10" text-anchor="middle" fill="white">Orca4</text>

    <!-- Core Software -->
    <text x="450" y="250" font-size="12" font-weight="bold" text-anchor="middle" fill="#2e7d32">Core Software</text>
    <rect x="320" y="255" width="85" height="40" rx="3" fill="#66bb6a" stroke="#2e7d32" stroke-width="1.5"/>
    <text x="362" y="270" font-size="9" text-anchor="middle" fill="white">robot_</text>
    <text x="362" y="282" font-size="9" text-anchor="middle" fill="white">localization</text>

    <rect x="415" y="255" width="70" height="40" rx="3" fill="#66bb6a" stroke="#2e7d32" stroke-width="1.5"/>
    <text x="450" y="278" font-size="9" text-anchor="middle" fill="white">Nav2</text>

    <rect x="495" y="255" width="85" height="40" rx="3" fill="#66bb6a" stroke="#2e7d32" stroke-width="1.5"/>
    <text x="537" y="270" font-size="9" text-anchor="middle" fill="white">ros2_</text>
    <text x="537" y="282" font-size="9" text-anchor="middle" fill="white">control</text>
  </g>

  <!-- Sensors & Hardware Section -->
  <g id="sensors">
    <rect x="650" y="60" width="250" height="300" rx="10" fill="#ff6f00" opacity="0.1" stroke="#ff6f00" stroke-width="2"/>
    <text x="775" y="85" font-size="16" font-weight="bold" text-anchor="middle" fill="#ff6f00">📡 Sensors & Hardware</text>

    <!-- Navigation Sensors -->
    <text x="775" y="110" font-size="11" font-weight="bold" text-anchor="middle" fill="#e65100">Navigation</text>
    <rect x="665" y="115" width="50" height="30" rx="3" fill="#ff8f00" stroke="#e65100" stroke-width="1.5"/>
    <text x="690" y="133" font-size="9" text-anchor="middle" fill="white">DVL</text>

    <rect x="720" y="115" width="50" height="30" rx="3" fill="#ff8f00" stroke="#e65100" stroke-width="1.5"/>
    <text x="745" y="133" font-size="9" text-anchor="middle" fill="white">INS/IMU</text>

    <rect x="775" y="115" width="50" height="30" rx="3" fill="#ff8f00" stroke="#e65100" stroke-width="1.5"/>
    <text x="800" y="133" font-size="9" text-anchor="middle" fill="white">GPS</text>

    <rect x="830" y="115" width="55" height="30" rx="3" fill="#ff8f00" stroke="#e65100" stroke-width="1.5"/>
    <text x="857" y="133" font-size="9" text-anchor="middle" fill="white">Depth</text>

    <!-- Perception Sensors -->
    <text x="775" y="165" font-size="11" font-weight="bold" text-anchor="middle" fill="#e65100">Perception</text>
    <rect x="665" y="170" width="70" height="30" rx="3" fill="#ff8f00" stroke="#e65100" stroke-width="1.5"/>
    <text x="700" y="188" font-size="9" text-anchor="middle" fill="white">Sonar</text>

    <rect x="740" y="170" width="70" height="30" rx="3" fill="#ff8f00" stroke="#e65100" stroke-width="1.5"/>
    <text x="775" y="188" font-size="9" text-anchor="middle" fill="white">Cameras</text>

    <rect x="815" y="170" width="70" height="30" rx="3" fill="#ff8f00" stroke="#e65100" stroke-width="1.5"/>
    <text x="850" y="188" font-size="9" text-anchor="middle" fill="white">USBL/LBL</text>

    <!-- Actuators -->
    <text x="775" y="220" font-size="11" font-weight="bold" text-anchor="middle" fill="#e65100">Actuators</text>
    <rect x="665" y="225" width="100" height="35" rx="3" fill="#ff8f00" stroke="#e65100" stroke-width="1.5"/>
    <text x="715" y="246" font-size="10" text-anchor="middle" fill="white">Thrusters</text>

    <rect x="775" y="225" width="110" height="35" rx="3" fill="#ff8f00" stroke="#e65100" stroke-width="1.5"/>
    <text x="830" y="246" font-size="10" text-anchor="middle" fill="white">Manipulators</text>
  </g>

  <!-- Simulation Section -->
  <g id="simulation">
    <rect x="950" y="60" width="200" height="180" rx="10" fill="#7b1fa2" opacity="0.1" stroke="#7b1fa2" stroke-width="2"/>
    <text x="1050" y="85" font-size="16" font-weight="bold" text-anchor="middle" fill="#7b1fa2">🎮 Simulation</text>

    <rect x="970" y="100" width="160" height="35" rx="5" fill="#9c27b0" stroke="#4a148c" stroke-width="1.5"/>
    <text x="1050" y="123" font-size="11" text-anchor="middle" fill="white">VRX (Gazebo ASV)</text>

    <rect x="970" y="145" width="160" height="35" rx="5" fill="#9c27b0" stroke="#4a148c" stroke-width="1.5"/>
    <text x="1050" y="168" font-size="11" text-anchor="middle" fill="white">DAVE (Gazebo UUV)</text>

    <rect x="970" y="190" width="75" height="35" rx="5" fill="#9c27b0" stroke="#4a148c" stroke-width="1.5"/>
    <text x="1007" y="212" font-size="10" text-anchor="middle" fill="white">HoloOcean</text>

    <rect x="1055" y="190" width="75" height="35" rx="5" fill="#9c27b0" stroke="#4a148c" stroke-width="1.5"/>
    <text x="1092" y="212" font-size="10" text-anchor="middle" fill="white">UNav-Sim</text>
  </g>

  <!-- Communication Section -->
  <g id="communication">
    <rect x="950" y="260" width="200" height="100" rx="10" fill="#00acc1" opacity="0.1" stroke="#00acc1" stroke-width="2"/>
    <text x="1050" y="285" font-size="16" font-weight="bold" text-anchor="middle" fill="#00acc1">📶 Communication</text>

    <rect x="970" y="295" width="90" height="30" rx="5" fill="#26c6da" stroke="#006064" stroke-width="1.5"/>
    <text x="1015" y="314" font-size="10" text-anchor="middle" fill="white">ros_acomms</text>

    <rect x="1070" y="295" width="60" height="30" rx="5" fill="#26c6da" stroke="#006064" stroke-width="1.5"/>
    <text x="1100" y="314" font-size="10" text-anchor="middle" fill="white">RF/WiFi</text>

    <rect x="1010" y="330" width="70" height="25" rx="5" fill="#26c6da" stroke="#006064" stroke-width="1.5"/>
    <text x="1045" y="346" font-size="10" text-anchor="middle" fill="white">Satellite</text>
  </g>

  <!-- Connection Arrows -->
  <!-- Vehicles to ROS -->
  <line x1="250" y1="125" x2="300" y2="135" stroke="#424242" stroke-width="2" marker-end="url(#arrowhead)"/>
  <line x1="250" y1="185" x2="300" y2="135" stroke="#424242" stroke-width="2" marker-end="url(#arrowhead)"/>
  <line x1="250" y1="245" x2="300" y2="135" stroke="#424242" stroke-width="2" marker-end="url(#arrowhead)"/>
  <line x1="250" y1="305" x2="300" y2="135" stroke="#424242" stroke-width="2" marker-end="url(#arrowhead)"/>

  <!-- Sensors to ROS -->
  <line x1="650" y1="130" x2="600" y2="135" stroke="#424242" stroke-width="2" marker-end="url(#arrowhead)"/>
  <line x1="650" y1="185" x2="600" y2="135" stroke="#424242" stroke-width="2" marker-end="url(#arrowhead)"/>

  <!-- ROS to Actuators -->
  <line x1="600" y1="275" x2="650" y2="243" stroke="#424242" stroke-width="2" marker-end="url(#arrowhead)"/>

  <!-- Simulation to Vehicles (dashed) -->
  <line x1="950" y1="118" x2="250" y2="125" stroke="#7b1fa2" stroke-width="1.5" stroke-dasharray="5,5" opacity="0.5"/>
  <line x1="950" y1="163" x2="250" y2="185" stroke="#7b1fa2" stroke-width="1.5" stroke-dasharray="5,5" opacity="0.5"/>

  <!-- Communication to Vehicles -->
  <line x1="950" y1="310" x2="250" y2="185" stroke="#00acc1" stroke-width="1.5" opacity="0.5"/>

  <!-- Legend -->
  <g id="legend">
    <text x="50" y="420" font-size="14" font-weight="bold" fill="#333">Data Flow:</text>
    <line x1="50" y1="435" x2="120" y2="435" stroke="#424242" stroke-width="2" marker-end="url(#arrowhead)"/>
    <text x="130" y="440" font-size="11" fill="#666">System Integration</text>

    <line x1="50" y1="455" x2="120" y2="455" stroke="#7b1fa2" stroke-width="1.5" stroke-dasharray="5,5"/>
    <text x="130" y="460" font-size="11" fill="#666">Testing/Development</text>

    <text x="300" y="420" font-size="14" font-weight="bold" fill="#333">Key Components:</text>
    <text x="300" y="440" font-size="10" fill="#666">• Autonomy stacks: Mission planning & execution</text>
    <text x="300" y="455" font-size="10" fill="#666">• Sensor fusion: robot_localization (EKF/UKF)</text>
    <text x="300" y="470" font-size="10" fill="#666">• Hardware interface: ros2_control framework</text>
    <text x="300" y="485" font-size="10" fill="#666">• Acoustic comms: ros_acomms (underwater)</text>
  </g>

  <!-- Footer -->
  <text x="600" y="770" font-size="12" text-anchor="middle" fill="#666" opacity="0.7">
    Maritime Robotics Landscape - ROS Working Group
  </text>

  <!-- Arrow marker definition -->
  <defs>
    <marker id="arrowhead" markerWidth="10" markerHeight="10" refX="9" refY="3" orient="auto">
      <polygon points="0 0, 10 3, 0 6" fill="#424242"/>
    </marker>
  </defs>
</svg>
